<svg width="600" height="400" xmlns="http://www.w3.org/2000/svg">
  <!-- Background -->
  <rect width="100%" height="100%" fill="#f8f9fa"/>
  
  <!-- Labels Style -->
  <style>
    .node-text { font: bold 14px sans-serif; fill: #333; }
    .port-text { font: 12px monospace; fill: #666; }
    .topic-text { font: italic 11px sans-serif; fill: #0056b3; }
    .fault-text { font: bold 11px sans-serif; fill: #dc3545; }
  </style>

  <!-- Nodes -->
  <!-- GUI -->
  <rect x="50" y="50" width="120" height="80" rx="10" fill="#e7f3ff" stroke="#007bff" stroke-width="2"/>
  <text x="110" y="85" text-anchor="middle" class="node-text">GUI CPU</text>
  <text x="110" y="105" text-anchor="middle" class="port-text">Port: 5010</text>

  <!-- Controller -->
  <rect x="350" y="50" width="150" height="80" rx="10" fill="#fff4e5" stroke="#fd7e14" stroke-width="2"/>
  <text x="425" y="85" text-anchor="middle" class="node-text">Controller CPU</text>
  <text x="425" y="105" text-anchor="middle" class="port-text">Port: 5011</text>

  <!-- Safety -->
  <rect x="200" y="250" width="150" height="80" rx="10" fill="#f8d7da" stroke="#dc3545" stroke-width="2"/>
  <text x="275" y="285" text-anchor="middle" class="node-text">Safety CPU</text>
  <text x="275" y="305" text-anchor="middle" class="port-text">Port: 5013</text>

  <!-- Connections -->
  <!-- GUI to Controller (Command) -->
  <path d="M 170 80 L 350 80" stroke="#007bff" stroke-width="1.5" marker-end="url(#arrow-blue)"/>
  <text x="260" y="75" text-anchor="middle" class="topic-text">Command</text>

  <!-- Controller to GUI (Status) -->
  <path d="M 350 100 L 170 100" stroke="#fd7e14" stroke-width="1.5" marker-end="url(#arrow-orange)"/>
  <text x="260" y="115" text-anchor="middle" class="topic-text">Status</text>

  <!-- Controller to Safety (Control) -->
  <path d="M 425 130 L 350 250" stroke="#fd7e14" stroke-width="1.5" marker-end="url(#arrow-orange)" fill="none"/>
  <text x="415" y="200" text-anchor="middle" class="topic-text">Control</text>

  <!-- Safety to Controller (Fault) -->
  <path d="M 325 250 L 375 130" stroke="#dc3545" stroke-width="1.5" marker-end="url(#arrow-red)" fill="none"/>
  <text x="330" y="180" text-anchor="middle" class="fault-text">Fault</text>

  <!-- Safety to GUI (Fault) -->
  <path d="M 225 250 L 140 130" stroke="#dc3545" stroke-width="1.5" marker-end="url(#arrow-red)" fill="none"/>
  <text x="160" y="210" text-anchor="middle" class="fault-text">Fault</text>

  <!-- Arrow heads -->
  <defs>
    <marker id="arrow-blue" markerWidth="10" markerHeight="10" refX="9" refY="3" orient="auto" markerUnits="strokeWidth">
      <path d="M0,0 L0,6 L9,3 z" fill="#007bff" />
    </marker>
    <marker id="arrow-orange" markerWidth="10" markerHeight="10" refX="9" refY="3" orient="auto" markerUnits="strokeWidth">
      <path d="M0,0 L0,6 L9,3 z" fill="#fd7e14" />
    </marker>
    <marker id="arrow-red" markerWidth="10" markerHeight="10" refX="9" refY="3" orient="auto" markerUnits="strokeWidth">
      <path d="M0,0 L0,6 L9,3 z" fill="#dc3545" />
    </marker>
  </defs>
</svg>