<svg width="400" height="700" viewBox="0 0 400 700" xmlns="http://www.w3.org/2000/svg">
  <!-- Background -->
  <rect width="400" height="700" fill="#ffffff" />
  
  <!-- Styles -->
  <style>
    .pipe { stroke: #888; stroke-width: 3; fill: none; }
    .valve { fill: #ff9999; stroke: #cc0000; stroke-width: 2; }
    .pump { fill: #99ff99; stroke: #00aa00; stroke-width: 2; }
    .centrifuge { fill: #9999ff; stroke: #0000cc; stroke-width: 2; }
    .sensor { fill: #ffff99; stroke: #aaaa00; stroke-width: 1.5; }
    .label { font-family: sans-serif; font-size: 12px; font-weight: bold; text-anchor: middle; }
    .valve-label { font-family: sans-serif; font-size: 11px; font-weight: bold; text-anchor: middle; fill: #cc0000; }
    .sensor-internal-label { font-family: sans-serif; font-size: 11px; font-weight: bold; text-anchor: middle; fill: #aaaa00; }
    .sub-label { font-family: sans-serif; font-size: 10px; text-anchor: middle; fill: #666; }
    .top-label { font-family: sans-serif; font-size: 11px; font-weight: bold; text-anchor: middle; }
  </style>

  <!-- Input Pipes (Top to Valves) -->
  <path d="M 80,60 L 80,100" class="pipe" />
  <path d="M 200,60 L 200,100" class="pipe" />
  <path d="M 320,60 L 320,100" class="pipe" />

  <!-- Output Pipes (Valves to Manifold) -->
  <path d="M 80,130 L 80,160" class="pipe" />
  <path d="M 200,130 L 200,160" class="pipe" />
  <path d="M 320,130 L 320,160" class="pipe" />

  <!-- Horizontal Manifold Line -->
  <path d="M 80,160 L 320,160" class="pipe" />
  
  <!-- Main Vertical Trunk -->
  <path d="M 200,160 L 200,650" class="pipe" />

  <!-- Pipe to Drain -->
  <path d="M 200,225 L 305,225" class="pipe" />

  <!-- Drain Valve -->
  <rect x="305" y="210" width="30" height="30" class="valve" />
  <text x="320" y="229" class="valve-label">V4</text>

  <!-- Input Labels -->
  <text x="80" y="45" class="top-label">Solution A</text>
  <text x="200" y="45" class="top-label">Solution B</text>
  <text x="320" y="45" class="top-label">Cell Source</text>

  <!-- Horizontal Valves -->
  <rect x="65" y="100" width="30" height="30" class="valve" />
  <text x="80" y="119" class="valve-label">V1</text>
  
  <rect x="185" y="100" width="30" height="30" class="valve" />
  <text x="200" y="119" class="valve-label">V2</text>
  
  <rect x="305" y="100" width="30" height="30" class="valve" />
  <text x="320" y="119" class="valve-label">V3</text>

  <!-- Inlet Sensors -->
  <circle cx="200" cy="290" r="22" class="sensor" />
  <text x="200" y="294" class="sensor-internal-label">P1/A1</text>

  <!-- Pump -->
  <rect x="160" y="340" width="80" height="80" rx="5" class="pump" />
  <circle cx="200" cy="380" r="28" fill="none" stroke="#00aa00" stroke-width="2" />
  <text x="200" y="384" class="label" fill="#00aa00">Pump</text>

  <!-- Outlet Sensors -->
  <circle cx="200" cy="470" r="22" class="sensor" />
  <text x="200" y="474" class="sensor-internal-label">P2/A2</text>

  <!-- Centrifuge -->
  <rect x="140" y="540" width="120" height="110" rx="10" class="centrifuge" />
  <circle cx="200" cy="595" r="40" fill="#9999ff" stroke="#0000cc" stroke-width="2" />
  <text x="200" y="600" class="label" fill="#0000cc">Centrifuge</text>
  
  <!-- Final Output -->
  <path d="M 320,240 L 320,350" class="pipe" />
  <text x="320" y="375" class="label">Cell Drain</text>

</svg>
