<svg width="800" height="640" xmlns="http://www.w3.org/2000/svg">
  <!-- Background -->
  <rect width="100%" height="100%" fill="white"/>
  
  <!-- Styles -->
  <style>
    .app-box { fill: #e3f2fd; stroke: #1976d2; stroke-width: 2; } /* Blue for User Code */
    .lib-box { fill: #fff9c4; stroke: #fbc02d; stroke-width: 2; } /* Yellow for DelegateMQ Core */
    .lib-middleware-box { fill: #fffde7; stroke: #fbc02d; stroke-width: 2; } /* Lighter Yellow for Middleware */
    .lib-infra-box { fill: #fffde7; stroke: #fbc02d; stroke-dasharray: 4; stroke-width: 2; } /* Dashed Yellow for Interfaces */
    .ext-box { fill: #f5f5f5; stroke: #616161; stroke-width: 2; } /* Grey for External Implementations */
    .text { font-family: Arial, sans-serif; font-size: 13px; text-anchor: middle; fill: #212121; }
    .title { font-weight: bold; font-size: 15px; }
    .arrow { stroke: #424242; stroke-width: 1.5; fill: none; marker-end: url(#arrowhead); }
  </style>

  <defs>
    <marker id="arrowhead" markerWidth="10" markerHeight="7" refX="0" refY="3.5" orient="auto">
      <polygon points="0 0, 10 3.5, 0 7" fill="#424242" />
    </marker>
  </defs>

  <!-- Application Layer -->
  <rect x="50" y="20" width="700" height="50" rx="5" class="app-box"/>
  <text x="400" y="50" class="text title">User Application Code</text>

  <!-- Middleware Layer (Part of Library) -->
  <rect x="50" y="90" width="340" height="50" rx="5" class="lib-middleware-box"/>
  <text x="220" y="120" class="text title">DataBus (DDS Lite)</text>
  
  <rect x="410" y="90" width="340" height="50" rx="5" class="lib-middleware-box"/>
  <text x="580" y="120" class="text title">Signal / Slot</text>

  <!-- Core Layer (Part of Library) -->
  <rect x="50" y="180" width="220" height="70" rx="5" class="lib-box"/>
  <text x="160" y="210" class="text title">Delegate</text>
  <text x="160" y="230" class="text">(Synchronous)</text>

  <rect x="290" y="180" width="220" height="70" rx="5" class="lib-box"/>
  <text x="400" y="210" class="text title">DelegateAsync</text>
  <text x="400" y="230" class="text title">DelegateAsyncWait</text>


  <rect x="530" y="180" width="220" height="70" rx="5" class="lib-box"/>
  <text x="640" y="220" class="text title">DelegateRemote</text>

  <!-- Infrastructure Layer (Part of Library) -->
  <rect x="290" y="270" width="220" height="50" rx="5" class="lib-infra-box"/>
  <text x="400" y="300" class="text title">IThread</text>

  <rect x="530" y="270" width="105" height="50" rx="5" class="lib-infra-box"/>
  <text x="582" y="300" class="text title">IDispatcher</text>

  <rect x="645" y="270" width="105" height="50" rx="5" class="lib-infra-box"/>
  <text x="697" y="300" class="text title">ISerializer</text>

  <rect x="530" y="330" width="220" height="50" rx="5" class="lib-infra-box"/>
  <text x="640" y="360" class="text title">ITransport</text>

  <!-- Implementation Layer (External to Library) -->
  <rect x="50" y="410" width="700" height="110" rx="5" class="ext-box"/>
  <text x="400" y="435" class="text title">Porting Layer (External Implementations)</text>
  <text x="400" y="460" class="text">OS: Windows, Linux, RTOS (FreeRTOS, Zephyr, ThreadX), Bare-Metal</text>
  <text x="400" y="480" class="text">Transport/Serializers: ZeroMQ, MQTT, TCP, MessagePack, JSON, Cereal...</text>
  <text x="400" y="500" class="text">Reliability: ReliableTransport (Optional)</text>

  <!-- Middleware to Core Arrows -->
  <path d="M 220,140 L 220,160 L 400,160 L 400,175" class="arrow" />
  <path d="M 220,140 L 220,160 L 640,160 L 640,175" class="arrow" />
  <path d="M 580,140 L 580,160 L 160,160 L 160,175" class="arrow" />
  <path d="M 580,140 L 580,160 L 400,160 L 400,175" class="arrow" />

  <!-- Core to Infrastructure Arrows -->
  <line x1="400" y1="250" x2="400" y2="265" class="arrow" />
  <line x1="640" y1="250" x2="640" y2="265" class="arrow" />
  <line x1="640" y1="320" x2="640" y2="325" class="arrow" />

  <!-- Infrastructure to Implementation Arrows -->
  <line x1="400" y1="320" x2="400" y2="405" class="arrow" />
  <line x1="640" y1="380" x2="640" y2="405" class="arrow" />

</svg>
